<?xml version="1.0" encoding="UTF-8"?>
<svg version="1.1" xmlns="http://www.w3.org/2000/svg" width="24" height="24">
<path d="M0 0 C7.92 0 15.84 0 24 0 C24 7.92 24 15.84 24 24 C16.08 24 8.16 24 0 24 C0 16.08 0 8.16 0 0 Z " fill="#BFBFBF" transform="translate(0,0)"/>
<path d="M0 0 C3.3 0 6.6 0 10 0 C10 7.92 10 15.84 10 24 C7.69 24 5.38 24 3 24 C2.67 21.69 2.34 19.38 2 17 C3.32 17 4.64 17 6 17 C6 16.34 6 15.68 6 15 C3.02148438 15.04882812 3.02148438 15.04882812 0.04296875 15.09765625 C-2 15 -2 15 -5 14 C-5 13.34 -5 12.68 -5 12 C-1.37 12 2.26 12 6 12 C6 11.01 6 10.02 6 9 C5.34 8.67 4.68 8.34 4 8 C3.34 7.649375 2.68 7.29875 2 6.9375 C0.06631779 5.85852204 0.06631779 5.85852204 -2 6 C-2.33 5.01 -2.66 4.02 -3 3 C-2.01 2.01 -1.02 1.02 0 0 Z " fill="#BEBDBE" transform="translate(14,0)"/>
<path d="M0 0 C0.66 0 1.32 0 2 0 C2 1.65 2 3.3 2 5 C2.598125 4.814375 3.19625 4.62875 3.8125 4.4375 C6 4 6 4 9 5 C9.66666667 6.33333333 10.33333333 7.66666667 11 9 C10.67 9.66 10.34 10.32 10 11 C6.08234111 11.81309902 2.82092412 12.37553268 -1 11 C-1 11.66 -1 12.32 -1 13 C2.63 13.33 6.26 13.66 10 14 C10 14.66 10 15.32 10 16 C9.01 16.33 8.02 16.66 7 17 C7 18.98 7 20.96 7 23 C6.67 22.34 6.34 21.68 6 21 C4.68 21 3.36 21 2 21 C2 20.34 2 19.68 2 19 C1.278125 18.87625 0.55625 18.7525 -0.1875 18.625 C-2.95721894 18.0095069 -5.3970354 17.11555626 -8 16 C-7.34 15.01 -6.68 14.02 -6 13 C-5.34 13 -4.68 13 -4 13 C-3.67 13.66 -3.34 14.32 -3 15 C-2.34 12.69 -1.68 10.38 -1 8 C0.65 8 2.3 8 4 8 C3.01 7.34 2.02 6.68 1 6 C1 5.34 1 4.68 1 4 C0.01 4.33 -0.98 4.66 -2 5 C-1.125 1.125 -1.125 1.125 0 0 Z " fill="#CCCDCD" transform="translate(10,1)"/>
<path d="M0 0 C1.5 1.375 1.5 1.375 3 3 C3.66 3.66 4.32 4.32 5 5 C2.69 5 0.38 5 -2 5 C-2.33 5.99 -2.66 6.98 -3 8 C-4.98 8 -6.96 8 -9 8 C-8.34 6.35 -7.68 4.7 -7 3 C-6.34 3 -5.68 3 -5 3 C-5 2.34 -5 1.68 -5 1 C-2 0 -2 0 0 0 Z " fill="#D6D6D7" transform="translate(11,5)"/>
<path d="M0 0 C1.65 0 3.3 0 5 0 C5 0.66 5 1.32 5 2 C4.01 2.33 3.02 2.66 2 3 C2 4.98 2 6.96 2 9 C1.67 8.34 1.34 7.68 1 7 C-0.32 7 -1.64 7 -3 7 C-3 6.34 -3 5.68 -3 5 C-4.32 4.67 -5.64 4.34 -7 4 C-7 3.67 -7 3.34 -7 3 C-3.535 2.505 -3.535 2.505 0 2 C0 1.34 0 0.68 0 0 Z " fill="#E5E6E6" transform="translate(15,15)"/>
<path d="M0 0 C0.66 0 1.32 0 2 0 C2.33 0.66 2.66 1.32 3 2 C4.32 2 5.64 2 7 2 C7.33 1.34 7.66 0.68 8 0 C8.99 0 9.98 0 11 0 C11 0.99 11 1.98 11 3 C3.73846154 5.21538462 3.73846154 5.21538462 0 4.125 C-0.66 3.75375 -1.32 3.3825 -2 3 C-1.34 2.01 -0.68 1.02 0 0 Z " fill="#D5D5D5" transform="translate(4,14)"/>
<path d="M0 0 C1.69141656 0.08963062 3.37959602 0.24577676 5.0625 0.4375 C6.44115234 0.59025391 6.44115234 0.59025391 7.84765625 0.74609375 C8.55792969 0.82988281 9.26820312 0.91367188 10 1 C10 1.66 10 2.32 10 3 C6.33694766 3.74926071 3.57644848 4.2380014 0 3 C0 3.66 0 4.32 0 5 C0.66 5 1.32 5 2 5 C2 5.66 2 6.32 2 7 C1.01 7 0.02 7 -1 7 C-1.04254356 5.00045254 -1.04080783 2.99958364 -1 1 C-0.67 0.67 -0.34 0.34 0 0 Z " fill="#E3E3E3" transform="translate(9,9)"/>
<path d="M0 0 C3.96 0 7.92 0 12 0 C11.67 0.99 11.34 1.98 11 3 C9.741875 3.020625 8.48375 3.04125 7.1875 3.0625 C6.47980469 3.07410156 5.77210937 3.08570313 5.04296875 3.09765625 C3 3 3 3 0 2 C0 1.34 0 0.68 0 0 Z " fill="#C7C8C8" transform="translate(9,12)"/>
<path d="M0 0 C2 0 2 0 3.5 1.375 C3.995 1.91125 4.49 2.4475 5 3 C5.66 3.66 6.32 4.32 7 5 C4.36 5 1.72 5 -1 5 C-1.33 4.01 -1.66 3.02 -2 2 C-1.34 1.34 -0.68 0.68 0 0 Z " fill="#BEC5C8" transform="translate(9,5)"/>
<path d="M0 0 C0.66 0 1.32 0 2 0 C2.144375 0.78375 2.28875 1.5675 2.4375 2.375 C2.87798925 4.96421018 2.87798925 4.96421018 4 7 C3.01 6.67 2.02 6.34 1 6 C1 5.34 1 4.68 1 4 C0.01 4.33 -0.98 4.66 -2 5 C-1.125 1.125 -1.125 1.125 0 0 Z " fill="#EBEDEE" transform="translate(10,1)"/>
</svg>
